<?xml version="1.0" encoding="utf-8"?>
<!-- Generator: Adobe Illustrator 21.0.0, SVG Export Plug-In . SVG Version: 6.00 Build 0)  -->
<svg version="1.1" id="Logo" xmlns="http://www.w3.org/2000/svg" xmlns:xlink="http://www.w3.org/1999/xlink" x="0px" y="0px"
	 viewBox="0 0 648.6 85.1" style="enable-background:new 0 0 648.6 85.1;" xml:space="preserve">
<style type="text/css">
	.st0{fill:url(#SVGID_1_);}
	.st1{fill:url(#SVGID_2_);}
	.st2{opacity:0.2;}
	.st3{fill:url(#SVGID_3_);}
	.st4{fill:url(#SVGID_4_);}
	.st5{fill:url(#SVGID_5_);}
	.st6{fill:url(#SVGID_6_);}
	.st7{fill:url(#SVGID_7_);}
	.st8{fill:url(#SVGID_8_);}
	.st9{fill:#FFFFFF;}
</style>
<title>CB911-logo-lightbg-RGB</title>
<linearGradient id="SVGID_1_" gradientUnits="userSpaceOnUse" x1="559.0441" y1="91.99" x2="559.0441" y2="7.7" gradientTransform="matrix(1 0 0 -1 0 88)">
	<stop  offset="0" style="stop-color:#FA0000"/>
	<stop  offset="1" style="stop-color:#AF0000"/>
</linearGradient>
<path class="st0" d="M484.9,73.5l2.9-14.2h20.5l-1.9,9.4h11.5l4.2-17.7h-19c-4.6-0.2-7.6-1.5-9-3.7c-1.2-2.1-1.4-4.9-0.4-8.4l7-28.9
	c0.5-3,2.3-5.7,4.9-7.4c2.3-1.4,5-2.1,7.7-2h29.6c2.6,0,5,1.2,6.5,3.3c2,2.2,2.7,5.4,1.8,8.3l-15.1,60c-0.5,1.2-1,2.5-1.6,4
	c-0.6,1.6-1.6,3.1-2.7,4.4c-1,1.4-2.4,2.5-4,3.1c-1.6,0.9-3.5,1.4-5.4,1.3h-30.5c-3.8,0-6.1-1.1-7-3.3
	C484.2,79,484.2,76.2,484.9,73.5L484.9,73.5z M526.3,34.6l4.7-17.7h-11.7l-4.6,17.7L526.3,34.6z M553.3,84.9l15.7-68.2h-8.2L573,0.4
	h18.3l-19.7,84.5H553.3z M595.6,84.9l15.7-68.2H603l12.3-16.3h18.3L614,84.9H595.6z"/>
<linearGradient id="SVGID_2_" gradientUnits="userSpaceOnUse" x1="89.0001" y1="88" x2="89.0001" y2="3.12" gradientTransform="matrix(1 0 0 -1 0 88)">
	<stop  offset="0" style="stop-color:#FA0000"/>
	<stop  offset="1" style="stop-color:#AF0000"/>
</linearGradient>
<path class="st1" d="M58.8,71.8c5.8,6.6-5.8,11.9-10.1,8c3.7,1.3,9.6-2,7.3-5.2C54.4,72.5,57.3,70.2,58.8,71.8z M61.2,12.4l53.2-4.8
	l-29.1,7.3l21.8-0.7L89.3,19C80.3,21.4,76.3,12.3,61.2,12.4L61.2,12.4z M33.1,0c-3.6,0-14.3,1-17.5,12.7L0.5,69.1
	c-2.2,8.3,2.9,15.8,12.9,15.8h60.4c6.4,0,7-1.7,8.8-2.4c4.4-1.7,10.5,0,12-1.8s0.3-4.9-0.7-6.7c-1.5-2.3-3.4-4.3-5.7-5.8
	c-2.6-1.8-5.5-2.8-7.5-2.4c-1.2,0.3-2.4,0.9-3.3,1.8c-0.3-1.7-0.8-3.4-1.5-5c1.6-1.1,2.4-1.4,3.9-3.2c12.7,2.3,15.1-5.7,21.1-8
	l1.5-5.9C93.8,48.4,92,57,82.2,55.2c0.8-2.8,1.1-5.5,5.8-7.7c-8,1.5-9.9,7.2-10.1,7.6c-2.6,5.3-10.2,5.9-7.6,7.7
	c4.6,3.1,1.6,7.6,5.7,9.6c0.8,0.4,1.7-1,3-1c0.4,0,1.6-1.2,2.4-1.7c1.6-1,7.9,3.4,9.4,7.1c0.7,1.9-3.2-0.7-8.3,1.6
	c-1,0.4-1.1-2-4.4,1.4c-1,1-3.9,0.1-4.7-1C71,75,67.3,69.8,63.3,68.4C62,68,61.1,67,60.7,65.7c-1-3-2.5-5.5-1.6-6.8
	c4.3-6.4,5.4-8.2-2.5-12.6c3.6,5,4.3,6.6-0.3,11.8c-2.5,2.8,0,5.6,1.8,12.1c-1.4-1.6-4.6,0.1-4,3.4c0.9,4.7-4.2,5.7-6.1,4.7
	c-7.4-3.9-9.6-3.5-14.7-10.6c-2.2-3.1-4.9,1.9-6.9-7.2l-5.2,2.8c-3.6,2-10-0.8-3.7-12.9c-2,4.8,0.9,7,3.9,4.7l4.4-3.4l6.1-22.7
	c4-14.8,15-19.7,26.7-20.5L178,0H33.1z M46.1,53c-0.8,8.8-1.9,11.5,1.3,16c-2.9-2.4-3.8-4.2-5-7.5L46.1,53z M40.6,40.7
	c-4.4,3.3,2,9.1,7,5.3c19.9-14.8,24.9-27.8-4.4-21.4C58.1,24.3,57.9,27.8,40.6,40.7z"/>
<g class="st2">
	
		<linearGradient id="SVGID_3_" gradientUnits="userSpaceOnUse" x1="76.9344" y1="24.6068" x2="89.4344" y2="60.6068" gradientTransform="matrix(1 0 0 -1 0 88)">
		<stop  offset="0" style="stop-color:#FFFFFF"/>
		<stop  offset="1" style="stop-color:#FFFFFF;stop-opacity:0"/>
	</linearGradient>
	<path class="st3" d="M30,36.1l1.9-7.1c4-14.8,15-19.7,26.7-20.5L178,0H33c-3.6,0-14.3,1-17.5,12.7L8.4,39.6
		C14.5,38.3,21.8,37,30,36.1z"/>
	
		<linearGradient id="SVGID_4_" gradientUnits="userSpaceOnUse" x1="44.6682" y1="35.8498" x2="57.1682" y2="71.8498" gradientTransform="matrix(1 0 0 -1 0 88)">
		<stop  offset="0" style="stop-color:#FFFFFF"/>
		<stop  offset="1" style="stop-color:#FFFFFF;stop-opacity:0"/>
	</linearGradient>
	<path class="st4" d="M48.2,34.7c3.9-0.1,7.9-0.2,12,0c7.5-9.1,4.4-14.8-16.9-10C55.4,24.3,57.5,26.7,48.2,34.7z"/>
	
		<linearGradient id="SVGID_5_" gradientUnits="userSpaceOnUse" x1="70.0776" y1="27.0308" x2="82.5776" y2="63.0308" gradientTransform="matrix(1 0 0 -1 0 88)">
		<stop  offset="0" style="stop-color:#FFFFFF"/>
		<stop  offset="1" style="stop-color:#FFFFFF;stop-opacity:0"/>
	</linearGradient>
	<path class="st5" d="M61.2,12.4c15.1-0.1,19.1,9,28.1,6.5l17.8-4.7l-21.8,0.7l29.1-7.3L61.2,12.4z"/>
</g>
<g class="st2">
	
		<linearGradient id="SVGID_6_" gradientUnits="userSpaceOnUse" x1="521.9183" y1="46.9206" x2="523.4183" y2="75.4206" gradientTransform="matrix(1 0 0 -1 0 88)">
		<stop  offset="0" style="stop-color:#FFFFFF"/>
		<stop  offset="1" style="stop-color:#FFFFFF;stop-opacity:0"/>
	</linearGradient>
	<path class="st6" d="M551.3,12.1c0.9-2.9,0.2-6-1.8-8.3c-1.5-2.1-3.9-3.4-6.5-3.3h-29.6c-2.7-0.1-5.4,0.6-7.7,2
		c-2.6,1.7-4.4,4.4-4.9,7.4L494,37.4c16.8,0.1,33.5,1,50.2,2.9L551.3,12.1z M526.4,34.6h-11.6l4.6-17.7H531L526.4,34.6z"/>
	
		<linearGradient id="SVGID_7_" gradientUnits="userSpaceOnUse" x1="574.1857" y1="44.1697" x2="575.6857" y2="72.6697" gradientTransform="matrix(1 0 0 -1 0 88)">
		<stop  offset="0" style="stop-color:#FFFFFF"/>
		<stop  offset="1" style="stop-color:#FFFFFF;stop-opacity:0"/>
	</linearGradient>
	<path class="st7" d="M580.8,45.8l10.6-45.4H573l-12.3,16.3h8.2l-6,26C568.7,43.6,574.7,44.7,580.8,45.8z"/>
	
		<linearGradient id="SVGID_8_" gradientUnits="userSpaceOnUse" x1="616.3889" y1="41.9501" x2="617.8889" y2="70.4501" gradientTransform="matrix(1 0 0 -1 0 88)">
		<stop  offset="0" style="stop-color:#FFFFFF"/>
		<stop  offset="1" style="stop-color:#FFFFFF;stop-opacity:0"/>
	</linearGradient>
	<path class="st8" d="M620.9,55.2l12.8-54.8h-18.3L603,16.8h8.2l-7.8,33.9C609.1,52,615,53.6,620.9,55.2z"/>
</g>
<g>
	<path class="st9" d="M103.9,68.4h11.3l-0.8,3.5h-6.7l-0.7,2.9h5.8l-0.8,3.3h-5.8l-1.6,6.7h-4.6L103.9,68.4z"/>
	<path class="st9" d="M116,84.8l3.8-16.4h7.7c1.1-0.1,2.1,0.1,3.2,0.4c0.7,0.3,1.2,0.8,1.5,1.5c0.3,0.9,0.3,1.8,0.1,2.7
		c-0.2,0.9-0.6,1.7-1.1,2.3c-0.5,0.6-1.1,1.2-1.8,1.6c-0.6,0.3-1.1,0.5-1.8,0.7c0.4,0.1,0.7,0.3,1,0.6c0.2,0.3,0.4,0.5,0.5,0.9
		c0.2,0.3,0.3,0.7,0.4,1l1.1,4.8h-5.2l-1.3-5c-0.1-0.5-0.3-0.9-0.5-1.3c-0.3-0.2-0.6-0.4-1-0.4h-0.4l-1.6,6.7L116,84.8z M122.9,75
		h1.9c0.4,0,0.9-0.1,1.3-0.2c0.3-0.1,0.6-0.3,0.9-0.5c0.3-0.3,0.4-0.6,0.5-0.9c0.1-0.4,0.1-0.9-0.2-1.2c-0.5-0.4-1-0.5-1.6-0.4h-2
		L122.9,75z"/>
	<path class="st9" d="M135.2,76.6c0.5-2.4,1.7-4.6,3.5-6.3c1.7-1.5,3.9-2.3,6.2-2.2c2.5,0,4.2,0.7,5.2,2.2c1,1.5,1.2,3.5,0.6,6.2
		c-0.4,1.7-1,3.3-2,4.7c-0.8,1.2-1.9,2.2-3.2,2.9c-1.4,0.7-2.9,1-4.4,1c-1.4,0.1-2.8-0.2-4-0.9c-1-0.6-1.7-1.6-2-2.8
		C134.7,79.8,134.7,78.2,135.2,76.6z M139.8,76.6c-0.4,1.2-0.4,2.4,0,3.6c0.4,0.7,1.2,1.1,2,1.1c1,0,1.9-0.4,2.5-1.1
		c0.9-1.1,1.5-2.4,1.7-3.8c0.4-1.1,0.4-2.3,0-3.4c-0.4-0.7-1.2-1.1-2-1.1c-1,0-1.9,0.4-2.6,1.1C140.6,74,140,75.3,139.8,76.6
		L139.8,76.6z"/>
	<path class="st9" d="M157,68.4h6v10l4.6-10h6l-3.8,16.4h-3.8l2.9-12.5l-5.8,12.5h-3.4V72.3l-2.9,12.5h-3.8L157,68.4z"/>
	<path class="st9" d="M187.8,68.4h6.8c1.1-0.1,2.1,0.1,3.1,0.6c0.7,0.4,1.3,1,1.6,1.7c0.4,0.8,0.6,1.7,0.6,2.6
		c0,1.1-0.1,2.1-0.4,3.2c-0.3,1.4-0.8,2.8-1.5,4.1c-0.5,0.9-1.2,1.7-2,2.4c-0.7,0.6-1.5,1-2.4,1.3c-0.9,0.3-1.9,0.4-2.8,0.4H184
		L187.8,68.4z M191.5,72.1l-2.1,8.9h1.1c0.7,0,1.5-0.1,2.1-0.3c0.5-0.3,0.9-0.7,1.2-1.2c0.5-0.9,0.8-1.8,1-2.8
		c0.4-1.7,0.4-2.9,0.1-3.6c-0.5-0.7-1.4-1.1-2.3-1L191.5,72.1z"/>
	<path class="st9" d="M205.9,68.4h12.3l-0.8,3.5h-7.7l-0.6,2.6h7.1l-0.8,3.3h-7.1l-0.8,3.2h7.9l-0.9,3.7h-12.5L205.9,68.4z"/>
	<path class="st9" d="M223,68.4h11.4l-0.8,3.5h-6.7l-0.7,2.9h5.8l-0.8,3.3h-5.8l-1.6,6.7h-4.6L223,68.4z"/>
	<path class="st9" d="M238.9,68.4h12.3l-0.8,3.5h-7.7l-0.6,2.6h7.1l-0.8,3.3h-7.1l-0.8,3.2h7.9l-0.9,3.7h-12.5L238.9,68.4z"/>
	<path class="st9" d="M256,68.4h4.3l3.5,9.1l2.1-9.1h4.3l-3.8,16.4h-4.3l-3.5-9l-2.1,9h-4.3L256,68.4z"/>
	<path class="st9" d="M272,79.4l4.4-0.3c-0.1,0.6-0.1,1.2,0.2,1.8c0.3,0.7,1,1.1,1.8,1c0.6,0,1.2-0.2,1.6-0.5
		c0.4-0.3,0.7-0.7,0.8-1.2c0.1-0.4,0-0.8-0.2-1.1c-0.6-0.5-1.3-0.8-2.1-0.9c-1.5-0.3-2.8-1-3.8-2c-0.7-0.9-0.9-2.1-0.6-3.2
		c0.2-0.9,0.6-1.7,1.2-2.4c0.6-0.8,1.5-1.4,2.4-1.8c1.2-0.5,2.5-0.7,3.8-0.6c1.5-0.1,2.9,0.3,4.1,1.2c0.8,0.8,1.1,2,0.9,3.7
		l-4.4,0.3c0.1-0.6,0-1.1-0.4-1.6c-0.4-0.4-0.9-0.5-1.4-0.5c-0.5,0-0.9,0.1-1.3,0.4c-0.3,0.2-0.5,0.5-0.6,0.9
		c-0.1,0.3,0,0.5,0.2,0.7c0.4,0.3,0.9,0.5,1.4,0.6c1.4,0.3,2.7,0.8,4,1.4c0.7,0.4,1.2,1,1.4,1.8c0.2,0.8,0.2,1.6,0,2.4
		c-0.3,1.1-0.8,2.1-1.5,2.9c-0.7,0.9-1.6,1.6-2.7,2c-1.2,0.5-2.5,0.7-3.7,0.7c-2.5,0-4.1-0.5-4.9-1.6
		C271.9,82.2,271.7,80.8,272,79.4z"/>
	<path class="st9" d="M292.4,68.4h12.3l-0.8,3.5h-7.7l-0.6,2.6h7.1l-0.7,3.3h-7.1l-0.8,3.2h7.9l-0.9,3.7h-12.5L292.4,68.4z"/>
	<path class="st9" d="M317.4,68.4h14l-0.9,4h-4.7l-2.9,12.3h-4.6l2.9-12.3h-4.7L317.4,68.4z"/>
	<path class="st9" d="M332.4,76.6c0.5-2.4,1.7-4.6,3.5-6.3c1.7-1.5,3.9-2.3,6.2-2.2c2.5,0,4.2,0.7,5.2,2.2c1,1.5,1.2,3.5,0.6,6.2
		c-0.4,1.7-1,3.3-2,4.7c-0.8,1.2-1.9,2.1-3.2,2.8c-1.4,0.7-2.9,1-4.4,1c-1.4,0.1-2.8-0.2-4-0.9c-1-0.6-1.7-1.6-2-2.8
		C331.9,79.8,331.9,78.1,332.4,76.6z M336.9,76.6c-0.4,1.2-0.4,2.4,0,3.6c0.4,0.7,1.2,1.1,2,1.1c1,0,1.9-0.4,2.5-1.1
		c0.9-1.1,1.5-2.4,1.7-3.8c0.4-1.1,0.4-2.3-0.1-3.4c-0.4-0.7-1.2-1.1-2-1.1c-0.9,0-1.8,0.4-2.5,1.1C337.7,74,337.2,75.3,336.9,76.6
		L336.9,76.6z"/>
	<path class="st9" d="M360.7,76.6c0.5-2.4,1.7-4.6,3.5-6.3c1.7-1.5,3.9-2.3,6.2-2.2c2.5,0,4.2,0.7,5.2,2.2c1,1.5,1.2,3.5,0.6,6.2
		c-0.4,1.7-1,3.3-2,4.7c-0.8,1.2-1.9,2.1-3.2,2.8c-1.4,0.7-2.9,1-4.4,1c-1.4,0.1-2.8-0.2-4-0.9c-1-0.6-1.7-1.6-2-2.8
		C360.3,79.8,360.3,78.1,360.7,76.6z M365.3,76.6c-0.4,1.2-0.4,2.4,0,3.6c0.4,0.7,1.2,1.1,2,1.1c1,0,1.9-0.4,2.5-1.1
		c0.9-1.1,1.5-2.4,1.7-3.8c0.4-1.1,0.4-2.3-0.1-3.4c-0.4-0.7-1.2-1.1-2-1.1c-0.9,0-1.8,0.4-2.5,1.1C366.1,74,365.5,75.3,365.3,76.6
		L365.3,76.6z"/>
	<path class="st9" d="M382.6,68.4H394l-0.8,3.5h-6.7l-0.7,2.9h5.8l-0.8,3.3H385l-1.6,6.7h-4.6L382.6,68.4z"/>
	<path class="st9" d="M398.5,68.4h11.4l-0.8,3.5h-6.7l-0.7,2.9h5.8l-0.8,3.3h-5.8l-1.6,6.7h-4.6L398.5,68.4z"/>
	<path class="st9" d="M414.4,68.4h12.3l-0.8,3.5h-7.7l-0.6,2.6h7.1l-0.7,3.3h-7.1l-0.8,3.2h7.9l-0.9,3.7h-12.5L414.4,68.4z"/>
	<path class="st9" d="M431.5,68.4h4.3l3.5,9.1l2.1-9.1h4.3l-3.8,16.4h-4.3l-3.5-9l-2.1,9h-4.3L431.5,68.4z"/>
	<path class="st9" d="M447.5,79.4l4.4-0.3c-0.1,0.6-0.1,1.2,0.2,1.8c0.3,0.7,1,1.1,1.8,1c0.6,0,1.2-0.2,1.6-0.5
		c0.4-0.3,0.7-0.7,0.8-1.2c0.1-0.4,0-0.8-0.2-1.1c-0.6-0.5-1.3-0.8-2.1-0.9c-1.5-0.3-2.8-1-3.8-2c-0.7-0.9-0.9-2.1-0.6-3.2
		c0.2-0.9,0.6-1.7,1.2-2.4c0.6-0.8,1.5-1.4,2.4-1.8c1.2-0.5,2.5-0.7,3.8-0.6c1.5-0.1,2.9,0.3,4.1,1.2c0.8,0.8,1.1,2,0.9,3.7
		l-4.4,0.3c0.1-0.6,0-1.1-0.4-1.6c-0.4-0.4-0.9-0.5-1.4-0.5c-0.5,0-0.9,0.1-1.3,0.4c-0.3,0.2-0.5,0.5-0.6,0.9
		c-0.1,0.3,0,0.5,0.2,0.7c0.4,0.3,0.9,0.5,1.4,0.6c1.4,0.3,2.7,0.8,4,1.4c0.7,0.4,1.2,1,1.4,1.8c0.2,0.8,0.2,1.6,0,2.4
		c-0.3,1.1-0.8,2.1-1.5,2.9c-0.7,0.9-1.6,1.6-2.7,2c-1.2,0.5-2.5,0.7-3.7,0.7c-2.5,0-4.1-0.5-4.9-1.6
		C447.4,82.2,447.2,80.8,447.5,79.4z"/>
	<path class="st9" d="M467.9,68.4h12.3l-0.8,3.5h-7.7l-0.6,2.6h7.1l-0.8,3.3h-7.1l-0.8,3.2h7.9l-0.9,3.7h-12.5L467.9,68.4z"/>
</g>
<path class="st9" d="M643.5,1c0.9,0,1.7,0.2,2.5,0.7c0.8,0.4,1.5,1.1,1.9,1.9c0.9,1.6,0.9,3.5,0,5.1c-0.4,0.8-1.1,1.5-1.9,1.9
	c-1.6,0.9-3.5,0.9-5.1,0c-0.8-0.4-1.5-1.1-1.9-1.9c-0.9-1.6-0.9-3.5,0-5.1c0.5-0.8,1.1-1.5,2-1.9C641.8,1.3,642.6,1,643.5,1z
	 M643.5,1.9c-0.7,0-1.5,0.2-2.1,0.6c-0.7,0.4-1.2,0.9-1.6,1.6c-0.8,1.3-0.8,2.9,0,4.3c0.4,0.7,0.9,1.2,1.6,1.6
	c1.3,0.8,2.9,0.8,4.2,0c0.7-0.4,1.2-0.9,1.6-1.6c0.8-1.3,0.8-2.9,0-4.3c-0.4-0.7-0.9-1.2-1.6-1.6C644.9,2.1,644.2,1.9,643.5,1.9
	L643.5,1.9z M641.2,9V3.5h1.9c0.5,0,0.9,0,1.4,0.2c0.3,0.1,0.5,0.3,0.7,0.5c0.2,0.2,0.3,0.5,0.3,0.8c0,0.4-0.2,0.8-0.4,1
	c-0.3,0.3-0.7,0.5-1.1,0.5c0.2,0.1,0.3,0.2,0.5,0.3c0.3,0.3,0.6,0.7,0.8,1.1l0.7,1.1h-1.1l-0.5-0.9c-0.2-0.5-0.5-0.9-0.9-1.3
	c-0.2-0.1-0.5-0.2-0.7-0.2h-0.5V9H641.2z M642.1,5.9h1.1c0.4,0,0.7,0,1-0.2c0.3-0.3,0.3-0.7,0.2-1c-0.1-0.2-0.2-0.3-0.4-0.4
	c-0.3-0.1-0.6-0.1-0.9-0.1h-1L642.1,5.9z"/>
<g>
	<path class="st9" d="M107.5,56.2l9.7-39c0.3-1,0.6-1.9,1.1-2.8c0.2-0.7,0.6-1.4,1.2-1.9c0.6-0.6,1.4-0.9,2.3-1
		c1.3-0.2,2.5-0.4,3.8-0.4h13.1c3.2,0,5.4,0.7,6.6,2.1s1.3,3.5,0.5,6.6l-2.9,11.9h-12.7l2.4-10.3h-3.4l-7.9,31h3.4l2.8-10.3h12.7
		l-3.8,14.3c-0.3,1.8-1.1,3.5-2.3,4.9c-1,0.9-2.7,1.3-5,1.2h-15c-1.3,0.1-2.6,0.1-3.9,0c-0.9,0-1.7-0.3-2.4-0.8
		c-0.5-0.5-0.8-1.2-0.7-1.9C107,58.5,107.2,57.4,107.5,56.2L107.5,56.2z M140.6,62.5h12.9l5.4-20.5h3.1L157,62.5h12.5l12.8-51.3
		h-12.6l-5,20.5h-3.5l5.2-20.5h-12.6L140.6,62.5L140.6,62.5z M196.3,31.6h3.1l2.6-10.3h-3.4L196.3,31.6L196.3,31.6z M175.4,62.4
		L186.9,18c0.5-1.9,1.3-3.6,2.5-5.2c1-1.2,2.9-1.8,5.8-1.8h13.7c1.4,0,2.7,0.1,4.1,0.4c0.9,0.2,1.7,0.7,2.3,1.4
		c0.5,1,0.7,2.2,0.6,3.4c-0.2,1.7-0.6,3.5-1.1,5.1l-10.3,41.2h-13l5.4-20.5h-3.5l-5.1,20.5L175.4,62.4L175.4,62.4z M247.6,53.4
		l9.3-36.3c0.6-2.3,1.4-3.9,2.5-4.7s3.1-1.2,5.8-1.2h15.8c2.1-0.1,4.3,0.5,6,1.8c1.5,1.2,1.9,3.3,1.3,6.3l-1.8,8.3h-12.3l1.5-6.2
		h-7.1l-7.6,30.8h6.8l1.3-4.7h-4.1l2.9-10.7h16L279,56c-0.3,1.3-0.8,2.6-1.5,3.7c-0.5,0.8-1.1,1.4-1.9,1.9c-0.8,0.4-1.6,0.7-2.5,0.8
		c-1.1,0.1-2.2,0.1-3.3,0h-16c-3.8,0.1-5.9-0.7-6.6-2.3s-0.4-3.8,0.3-6.6L247.6,53.4z M282.7,62.4h24.8l2.5-10.2h-12l2.7-10.3h11.8
		l2.5-10.4h-11.6l2.5-10.3h11.8l2.9-10.3h-24.9L282.7,62.4L282.7,62.4z M330.5,41.9l-2.7,10.3h3.7l2.7-10.3L330.5,41.9z M335.8,21.3
		l-2.6,10.3h3.5l2.7-10.3H335.8z M312.3,62.4L325.5,11h21.6c2.5,0,4.2,0.8,5.3,2.4s1.2,3.8,0.5,6.4L350,30.6
		c-0.5,1.9-1.8,3.5-3.5,4.4c-1.8,0.8-3.6,1.4-5.5,1.8c0.6,0.2,1.4,0.5,2.3,0.8c0.8,0.2,1.5,0.6,2.1,1.1c0.6,0.6,1.1,1.3,1.5,2.1
		c0.3,1,0.2,2.1-0.2,3.1l-2.9,11c-0.4,1.5-0.8,2.7-1.1,3.7c-0.4,0.9-0.9,1.6-1.6,2.2c-0.7,0.7-1.7,1.1-2.6,1.2
		c-1.4,0.3-2.9,0.3-4.3,0.2L312.3,62.4z M384.4,56.2l9.7-39c0.3-1,0.6-1.9,1.1-2.8c0.2-0.7,0.6-1.4,1.2-1.9c0.6-0.6,1.4-0.9,2.3-1
		c1.3-0.2,2.5-0.4,3.8-0.4h13.1c3.2,0,5.4,0.7,6.6,2.1s1.3,3.5,0.5,6.6l-2.9,11.9h-12.7l2.4-10.3h-3.4l-7.9,31h3.4l2.8-10.3h12.7
		l-3.8,14.3c-0.3,1.8-1.1,3.5-2.3,4.9c-1,0.9-2.7,1.3-5,1.2h-15c-1.3,0.1-2.6,0.1-4,0c-0.9,0-1.7-0.3-2.4-0.8
		c-0.5-0.5-0.8-1.2-0.7-1.9C384,58.5,384.1,57.4,384.4,56.2L384.4,56.2z M417.8,62.4h12.6l3.5-14.5l0.5,14.5h12.7l-2.1-25.6
		L460,11.2h-12.6l-7.9,13.6l3.6-13.6h-12.8L417.8,62.4L417.8,62.4z M461.4,18.8c0.4-2.1,1.2-4.1,2.5-5.8c1-1.3,3-1.9,5.8-1.8h14.9
		c1.4-0.1,2.9,0.1,4.3,0.5c0.8,0.4,1.4,1,1.8,1.8c0.3,0.7,0.4,1.5,0.3,2.2c-0.2,0.9-0.4,1.8-0.5,2.5l-1.9,8.3h-12.4l1.2-5.1h-4.4
		l-2.4,10.3h16.6l-5.7,23.8c-0.4,2-1.2,3.8-2.4,5.4c-1.2,1.1-3.1,1.6-5.8,1.6h-14.6c-1.9,0.1-3.8-0.7-5-2.2
		c-1.1-1.5-1.5-3.5-1.1-5.3l2-7.8h12.2l-1.3,5.1h4.5l2.4-10.2h-16.6L461.4,18.8z"/>
	<path class="st9" d="M387.4,12.8c-0.6-0.7-1.4-1.2-2.3-1.4c-1.3-0.3-2.7-0.4-4.1-0.4h-13.7c-2.9,0-4.9,0.6-5.8,1.8
		c-1.1,1.6-2,3.3-2.5,5.2l-11.4,44.4l12.8,0.1l5.1-20.5h3.5l-5.4,20.5h13l10.3-41.2c0.5-1.7,0.9-3.4,1.1-5.2
		C388.1,15,387.9,13.9,387.4,12.8z M371.6,31.6h-3.1l2.2-10.3h3.4L371.6,31.6z"/>
	<path class="st9" d="M248.5,12.7c-1.2-1-3-1.6-5.6-1.6h-19.4l-12.8,51.4l0-0.1h12.8l3.9-16.2l2.4,16.2h12.5L238.9,42
		c0.6-0.2,1.1-0.5,1.7-0.6c0.7-0.3,1.4-0.7,2.1-1.2c0.7-0.5,1.4-1.1,2-1.7c0.7-0.8,1.2-1.8,1.4-2.9l4.7-17.4
		C250.6,15.6,249.9,13.8,248.5,12.7z M234.5,31.6H231l2.8-10.2l3.2,0L234.5,31.6z"/>
</g>
</svg>
