<svg id="Logo" xmlns="http://www.w3.org/2000/svg" xmlns:xlink="http://www.w3.org/1999/xlink" viewBox="0 0 648.6 85.07"><defs><style>.cls-1{fill:url(#linear-gradient);}.cls-2,.cls-3{fill-rule:evenodd;}.cls-2{fill:url(#linear-gradient-2);}.cls-3{fill:url(#linear-gradient-3);}.cls-4{opacity:0.2;}.cls-5{fill:url(#linear-gradient-4);}.cls-6{fill:url(#linear-gradient-5);}.cls-7{fill:url(#linear-gradient-6);}.cls-8{fill:url(#linear-gradient-7);}.cls-9{fill:url(#linear-gradient-8);}.cls-10{fill:url(#linear-gradient-9);}</style><linearGradient id="linear-gradient" x1="559.05" y1="-3.99" x2="559.05" y2="80.3" gradientUnits="userSpaceOnUse"><stop offset="0" stop-color="#fa0000"/><stop offset="1" stop-color="#af0000"/></linearGradient><linearGradient id="linear-gradient-2" x1="298.99" y1="60.51" x2="298.99" y2="13.9" gradientUnits="userSpaceOnUse"><stop offset="0"/><stop offset="1" stop-color="#0f0f0f"/></linearGradient><linearGradient id="linear-gradient-3" x1="89.01" y1="0" x2="89.01" y2="84.88" xlink:href="#linear-gradient"/><linearGradient id="linear-gradient-4" x1="76.98" y1="63.41" x2="89.48" y2="27.41" gradientUnits="userSpaceOnUse"><stop offset="0" stop-color="#fff"/><stop offset="1" stop-color="#fff" stop-opacity="0"/></linearGradient><linearGradient id="linear-gradient-5" x1="44.61" y1="52.13" x2="57.11" y2="16.13" xlink:href="#linear-gradient-4"/><linearGradient id="linear-gradient-6" x1="70.08" y1="60.97" x2="82.58" y2="24.97" xlink:href="#linear-gradient-4"/><linearGradient id="linear-gradient-7" x1="521.93" y1="41.08" x2="523.43" y2="12.58" xlink:href="#linear-gradient-4"/><linearGradient id="linear-gradient-8" x1="574.18" y1="43.83" x2="575.68" y2="15.33" xlink:href="#linear-gradient-4"/><linearGradient id="linear-gradient-9" x1="616.39" y1="46.05" x2="617.89" y2="17.55" xlink:href="#linear-gradient-4"/></defs><title>CB911-logo-lightbg-RGB</title><path class="cls-1" d="M484.93,73.46l2.93-14.24h20.47l-1.93,9.43h11.48L522.11,51h-19q-6.89-.35-9-3.67c-1.23-2.08-1.39-4.88-.44-8.43l7-28.94a10.88,10.88,0,0,1,4.86-7.41,14.66,14.66,0,0,1,7.74-2h29.63a7.86,7.86,0,0,1,6.54,3.34,8.43,8.43,0,0,1,1.82,8.26l-15.09,60c-.45,1.2-1,2.53-1.58,4a14.59,14.59,0,0,1-2.72,4.36,9.41,9.41,0,0,1-4,3.11,10.13,10.13,0,0,1-5.42,1.35H491.93c-3.8,0-6.13-1.12-7-3.34a16.2,16.2,0,0,1,0-8.08Zm41.42-38.88L531,16.88H519.35l-4.63,17.69Zm26.91,50.36,15.65-68.17h-8.18L573,.43h18.31L571.63,84.94Zm42.32,0,15.65-68.17h-8.18L615.36.43h18.31L614,84.94Z"/><path class="cls-2" d="M107.46,56.18l9.67-39a21.71,21.71,0,0,1,1.07-2.82,4,4,0,0,1,1.21-1.89,3.79,3.79,0,0,1,2.3-1,23.49,23.49,0,0,1,3.81-.41h13.14c3.23,0,5.43.71,6.63,2.13s1.27,3.54.52,6.55l-2.92,11.87H130.2l2.38-10.26h-3.39l-7.89,31h3.4L127.46,42h12.73l-3.77,14.31a10.55,10.55,0,0,1-2.27,4.9c-1,.9-2.66,1.31-5,1.24h-15a36.64,36.64,0,0,1-3.95,0,4.6,4.6,0,0,1-2.44-.82,2.53,2.53,0,0,1-.71-1.92,14,14,0,0,1,.41-3.5Zm33.13,6.28h12.93L158.87,42h3.06L157,62.46h12.5l12.79-51.29H169.68l-5,20.52h-3.5l5.18-20.52H153.73L140.6,62.46Zm55.73-30.88h3.12L202,21.32h-3.43l-2.22,10.26ZM175.44,62.39,186.85,18a16.41,16.41,0,0,1,2.47-5.18Q190.77,11,195.16,11h13.69a17.33,17.33,0,0,1,4.09.38,4,4,0,0,1,2.33,1.42,6.21,6.21,0,0,1,.58,3.36,32.21,32.21,0,0,1-1.14,5.14L204.45,62.49h-13L196.88,42h-3.54l-5.07,20.52-12.83-.11Zm58.38-41L231,31.61h3.5L237,21.43Zm-23,41h12.76l3.88-16.19,2.37,16.19h12.49L238.86,42a13.88,13.88,0,0,1,1.71-.62c.67-.34,1.36-.74,2.1-1.19a10.25,10.25,0,0,0,2-1.72,7.25,7.25,0,0,0,1.44-2.88l4.7-17.35c-.18-2.61-.95-4.45-2.29-5.53-1.19-1-3-1.57-5.56-1.62H223.59L210.8,62.46Zm36.74-9,9.26-36.32c.6-2.33,1.43-3.9,2.51-4.71s3.07-1.19,5.76-1.19h15.78a9.17,9.17,0,0,1,6,1.78c1.46,1.22,1.9,3.31,1.31,6.31l-1.79,8.34H274.09l1.53-6.21h-7.06l-7.65,30.81h6.76l1.3-4.71h-4.11l2.92-10.74h16.05L279,56a14.89,14.89,0,0,1-1.5,3.73,5.34,5.34,0,0,1-1.9,1.9,7.55,7.55,0,0,1-2.53.82,26.64,26.64,0,0,1-3.34,0h-16c-3.75.07-5.94-.71-6.55-2.33s-.41-3.81.3-6.63Zm35.18,9h24.8L310,52.2h-12l2.74-10.29h11.8l2.54-10.36H303.48L306,21.29h11.79L320.69,11H295.82l-13.1,51.46ZM330.5,41.94,327.83,52.2h3.7l2.74-10.26Zm5.25-20.62-2.6,10.26h3.54l2.74-10.26ZM312.31,62.39,325.46,11h21.61c2.45,0,4.2.82,5.25,2.44s1.23,3.76.51,6.45L350,30.58A7,7,0,0,1,346.45,35a21.16,21.16,0,0,1-5.55,1.78c.62.21,1.37.48,2.26.83a6.22,6.22,0,0,1,2.13,1.1,7,7,0,0,1,1.47,2.12,5.09,5.09,0,0,1-.21,3.13l-2.92,11c-.39,1.49-.75,2.74-1.09,3.74a5.59,5.59,0,0,1-1.65,2.2,5,5,0,0,1-2.65,1.23,17,17,0,0,1-4.28.21Zm56.16-30.81h3.13l2.53-10.26h-3.43l-2.22,10.26ZM347.58,62.39l12.83.11L365.48,42H369l-5.39,20.52h13l10.26-41.17A32.28,32.28,0,0,0,388,16.18a6.18,6.18,0,0,0-.59-3.36,4,4,0,0,0-2.33-1.42A17.36,17.36,0,0,0,381,11H367.3q-4.39,0-5.83,1.79A16.36,16.36,0,0,0,359,18L347.58,62.39Zm36.83-6.21,9.67-39a21.45,21.45,0,0,1,1.06-2.82,4,4,0,0,1,1.21-1.89,3.79,3.79,0,0,1,2.29-1,23.54,23.54,0,0,1,3.81-.41h13.14c3.23,0,5.43.71,6.63,2.13s1.26,3.54.51,6.55l-2.91,11.87H407.15l2.38-10.26h-3.4l-7.89,31h3.4L404.41,42h12.73l-3.77,14.31a10.53,10.53,0,0,1-2.27,4.9c-1,.9-2.66,1.31-5,1.24h-15a36.63,36.63,0,0,1-3.95,0,4.6,4.6,0,0,1-2.44-.82,2.53,2.53,0,0,1-.71-1.92,13.92,13.92,0,0,1,.41-3.5Zm33.44,6.21h12.62L434,47.84l.52,14.54h12.73l-2.06-25.6L460,11.24H447.43l-7.86,13.55,3.56-13.55H430.38L417.85,62.39Zm43.58-43.64a13.19,13.19,0,0,1,2.54-5.8c1-1.25,3-1.86,5.76-1.81h14.86a11.45,11.45,0,0,1,4.25.51,3.7,3.7,0,0,1,1.78,1.82,4.38,4.38,0,0,1,.28,2.2c-.19.94-.37,1.77-.55,2.51l-1.92,8.27H476.08l1.23-5.15h-4.39l-2.4,10.29h16.64L481.5,55.35a12.77,12.77,0,0,1-2.4,5.42q-1.79,1.61-5.8,1.61H458.69a6.09,6.09,0,0,1-5-2.22,6.45,6.45,0,0,1-1.07-5.33l2-7.82h12.21l-1.3,5.12H470l2.41-10.22H455.77Z"/><path class="cls-3" d="M58.79,71.81c5.83,6.55-5.84,11.89-10.14,8,3.74,1.29,9.61-2,7.27-5.17-1.56-2.14,1.4-4.49,2.87-2.83Zm2.39-59.37,53.19-4.85L85.25,14.93l21.8-.68L89.3,19c-9.05,2.41-13-6.66-28.12-6.54ZM33.07,0c-3.6,0-14.32,1-17.46,12.7L.51,69.06C-1.7,77.31,3.4,84.88,13.4,84.88H73.8c6.39,0,7-1.65,8.85-2.38,4.42-1.72,10.52,0,12-1.84s.34-4.95-.7-6.73a20.09,20.09,0,0,0-5.68-5.82c-2.59-1.79-5.53-2.83-7.53-2.45a7.3,7.3,0,0,0-3.3,1.81,17,17,0,0,0-1.54-5c1.61-1.12,2.44-1.42,3.9-3.24,12.71,2.29,15.06-5.72,21.09-8l1.52-5.94C93.81,48.42,92,57,82.24,55.21c.81-2.81,1.08-5.54,5.84-7.65-8,1.55-9.86,7.23-10.06,7.63-2.63,5.25-10.19,5.9-7.61,7.67C75,66,72,70.43,76.11,72.43c.85.42,1.7-1,3-1,.4,0,1.56-1.23,2.42-1.74,1.63-1,7.94,3.4,9.36,7.11.73,1.9-3.23-.67-8.3,1.6-1,.45-1.12-2-4.39,1.37-1,1-3.94.13-4.66-1C71,75,67.27,69.84,63.28,68.39a4.11,4.11,0,0,1-2.6-2.66c-1-3-2.47-5.45-1.59-6.78,4.25-6.4,5.39-8.19-2.54-12.63,3.61,5,4.25,6.57-.33,11.82-2.47,2.83,0,5.57,1.75,12.07-1.36-1.56-4.58.06-4,3.36.88,4.74-4.23,5.66-6.08,4.67-7.37-3.93-9.63-3.53-14.66-10.58-2.21-3.09-4.86,1.93-6.85-7.23l-5.21,2.84c-3.61,2-10-.81-3.71-12.93-2,4.8.88,6.95,3.87,4.65l4.43-3.41L31.87,28.9c4-14.77,15-19.71,26.69-20.53L178,0ZM46.14,53c-.79,8.84-1.87,11.49,1.25,16-2.87-2.41-3.76-4.2-5-7.48L46.14,53ZM40.61,40.65c-4.42,3.29,2,9.07,7,5.28C67.55,31.1,72.49,18.1,43.26,24.57,58.06,24.26,57.89,27.79,40.61,40.65Z"/><g class="cls-4"><path class="cls-5" d="M29.95,36.06l1.92-7.15c4-14.77,15-19.71,26.69-20.53L178,0h-145c-3.6,0-14.32,1-17.46,12.7L8.41,39.6C14.47,38.32,21.8,37,29.95,36.06Z"/><path class="cls-6" d="M48.2,34.66c3.9-.13,7.9-.16,12,0,7.54-9.13,4.39-14.76-16.9-10C55.43,24.31,57.47,26.66,48.2,34.66Z"/><path class="cls-7" d="M61.18,12.44c15.14-.12,19.07,9,28.12,6.54l17.75-4.73-21.8.68,29.11-7.34Z"/></g><g class="cls-4"><path class="cls-8" d="M551.28,12.08a8.43,8.43,0,0,0-1.82-8.26A7.86,7.86,0,0,0,542.93.48H513.29a14.66,14.66,0,0,0-7.74,2,10.88,10.88,0,0,0-4.86,7.41L494,37.42a463.06,463.06,0,0,1,50.15,2.9Zm-24.93,22.5H514.72l4.63-17.69H531Z"/><path class="cls-9" d="M580.76,45.8,591.35.43H573L560.73,16.77h8.18l-6,26Q571.6,44.08,580.76,45.8Z"/><path class="cls-10" d="M620.89,55.21,633.67.43H615.36L603.05,16.77h8.18l-7.78,33.9Q612,52.73,620.89,55.21Z"/></g><path d="M103.9,68.41h11.35l-.82,3.52h-6.74L107,74.79h5.76L112,78.09h-5.76l-1.56,6.69h-4.61Z"/><path d="M116,84.79l3.82-16.38h7.65a9.25,9.25,0,0,1,3.16.4,2.52,2.52,0,0,1,1.47,1.49,4.42,4.42,0,0,1,.07,2.65,6.09,6.09,0,0,1-1.08,2.35,6.17,6.17,0,0,1-1.82,1.6,6.62,6.62,0,0,1-1.76.65,3.3,3.3,0,0,1,1.05.6,3.54,3.54,0,0,1,.53.86,4.89,4.89,0,0,1,.41,1l1.12,4.75h-5.19l-1.29-5a2.83,2.83,0,0,0-.54-1.26,1.46,1.46,0,0,0-1-.38h-.41l-1.55,6.65ZM122.93,75h1.94a7.16,7.16,0,0,0,1.27-.22,1.63,1.63,0,0,0,.87-.51,2.05,2.05,0,0,0,.51-.95,1.35,1.35,0,0,0-.17-1.22,2.15,2.15,0,0,0-1.61-.42h-2Z"/><path d="M135.18,76.61a11.5,11.5,0,0,1,3.49-6.25,9,9,0,0,1,6.17-2.23q3.71,0,5.2,2.19t.57,6.15a13.29,13.29,0,0,1-2,4.71,9.32,9.32,0,0,1-3.2,2.86,9.07,9.07,0,0,1-4.37,1,7.56,7.56,0,0,1-4-.88,4.71,4.71,0,0,1-2-2.79A9.35,9.35,0,0,1,135.18,76.61Zm4.59,0a5.41,5.41,0,0,0,0,3.56,2.1,2.1,0,0,0,2,1.08,3.46,3.46,0,0,0,2.54-1.06,8.08,8.08,0,0,0,1.7-3.81A4.93,4.93,0,0,0,146,73a2.15,2.15,0,0,0-2-1.07A3.44,3.44,0,0,0,141.45,73,7.38,7.38,0,0,0,139.77,76.63Z"/><path d="M157,68.41h6v10l4.64-10h6l-3.82,16.38h-3.76L169,72.3l-5.81,12.49h-3.4l0-12.49-2.92,12.49h-3.76Z"/><path d="M187.77,68.41h6.82a6.58,6.58,0,0,1,3.12.6,3.84,3.84,0,0,1,1.65,1.73,6.11,6.11,0,0,1,.56,2.63,13.38,13.38,0,0,1-.38,3.17A14.24,14.24,0,0,1,198,80.61,9.46,9.46,0,0,1,196,83a6.49,6.49,0,0,1-2.37,1.3,10.85,10.85,0,0,1-2.84.45h-6.82Zm3.73,3.71-2.09,8.95h1.13a4.9,4.9,0,0,0,2.13-.35,3.25,3.25,0,0,0,1.24-1.23,9.91,9.91,0,0,0,1-2.84q.61-2.6.06-3.56a2.46,2.46,0,0,0-2.33-1Z"/><path d="M205.92,68.41h12.31l-.82,3.5h-7.7l-.61,2.6h7.15l-.78,3.34h-7.15l-.75,3.23h7.93l-.87,3.71H202.1Z"/><path d="M223,68.41h11.35l-.82,3.52h-6.74l-.67,2.86h5.76l-.77,3.31h-5.76l-1.56,6.69h-4.61Z"/><path d="M238.91,68.41h12.31l-.82,3.5h-7.7l-.61,2.6h7.15l-.78,3.34h-7.15l-.75,3.23h7.93l-.87,3.71H235.08Z"/><path d="M256,68.41h4.29l3.48,9.06,2.12-9.06h4.33L266.4,84.79h-4.33l-3.47-9-2.1,9h-4.32Z"/><path d="M272,79.37l4.44-.3a3.39,3.39,0,0,0,.16,1.79,1.8,1.8,0,0,0,1.79,1,2.57,2.57,0,0,0,1.63-.51,2.09,2.09,0,0,0,.81-1.18,1.29,1.29,0,0,0-.24-1.14,4.29,4.29,0,0,0-2.13-.95,7.25,7.25,0,0,1-3.84-2,3.5,3.5,0,0,1-.56-3.16,5.8,5.8,0,0,1,1.22-2.39,6.31,6.31,0,0,1,2.41-1.77,9.65,9.65,0,0,1,3.8-.64,5.8,5.8,0,0,1,4.07,1.17q1.22,1.17.91,3.72l-4.39.28a2.16,2.16,0,0,0-.35-1.61,1.77,1.77,0,0,0-1.41-.5,2.08,2.08,0,0,0-1.29.37,1.58,1.58,0,0,0-.62.91.77.77,0,0,0,.17.71,2.77,2.77,0,0,0,1.4.6,14.44,14.44,0,0,1,4,1.45A3.37,3.37,0,0,1,285.43,77a4.56,4.56,0,0,1,0,2.43,7,7,0,0,1-1.47,2.9,7.11,7.11,0,0,1-2.68,2,9.32,9.32,0,0,1-3.74.69q-3.79,0-4.87-1.61A5.56,5.56,0,0,1,272,79.37Z"/><path d="M292.41,68.41h12.31l-.82,3.5h-7.7l-.61,2.6h7.15L302,77.85h-7.15l-.75,3.23H302l-.87,3.71H288.59Z"/><path d="M317.44,68.41h14l-.94,4h-4.68l-2.88,12.34H318.3l2.88-12.34H316.5Z"/><path d="M332.35,76.61a11.51,11.51,0,0,1,3.49-6.25A9,9,0,0,1,342,68.13q3.71,0,5.2,2.19t.57,6.15a13.29,13.29,0,0,1-2,4.71A9.33,9.33,0,0,1,342.6,84a9.07,9.07,0,0,1-4.37,1,7.56,7.56,0,0,1-4-.88,4.7,4.7,0,0,1-2-2.79A9.35,9.35,0,0,1,332.35,76.61Zm4.59,0a5.4,5.4,0,0,0,0,3.56,2.1,2.1,0,0,0,2,1.08,3.46,3.46,0,0,0,2.54-1.06,8.08,8.08,0,0,0,1.7-3.81,4.93,4.93,0,0,0-.06-3.38,2.15,2.15,0,0,0-2-1.07A3.44,3.44,0,0,0,338.62,73,7.38,7.38,0,0,0,336.94,76.63Z"/><path d="M360.72,76.61a11.5,11.5,0,0,1,3.49-6.25,9,9,0,0,1,6.17-2.23q3.71,0,5.2,2.19t.57,6.15a13.27,13.27,0,0,1-2,4.71A9.33,9.33,0,0,1,371,84a9.07,9.07,0,0,1-4.37,1,7.56,7.56,0,0,1-4-.88,4.71,4.71,0,0,1-2-2.79A9.35,9.35,0,0,1,360.72,76.61Zm4.59,0a5.4,5.4,0,0,0,0,3.56,2.1,2.1,0,0,0,2,1.08,3.46,3.46,0,0,0,2.54-1.06,8.08,8.08,0,0,0,1.7-3.81,4.93,4.93,0,0,0-.06-3.38,2.15,2.15,0,0,0-2-1.07A3.45,3.45,0,0,0,367,73,7.39,7.39,0,0,0,365.3,76.63Z"/><path d="M382.6,68.41H394l-.82,3.52h-6.74l-.67,2.86h5.76l-.77,3.31h-5.76l-1.56,6.69h-4.61Z"/><path d="M398.52,68.41h11.35l-.82,3.52h-6.74l-.67,2.86h5.76l-.77,3.31h-5.76l-1.56,6.69H394.7Z"/><path d="M414.41,68.41h12.31l-.82,3.5h-7.7l-.61,2.6h7.15L424,77.85h-7.15l-.75,3.23H424l-.87,3.71H410.59Z"/><path d="M431.52,68.41h4.29l3.48,9.06,2.12-9.06h4.33L441.9,84.79h-4.33l-3.47-9-2.1,9h-4.32Z"/><path d="M447.5,79.37l4.44-.3a3.39,3.39,0,0,0,.16,1.79,1.8,1.8,0,0,0,1.79,1,2.57,2.57,0,0,0,1.63-.51,2.1,2.1,0,0,0,.81-1.18,1.29,1.29,0,0,0-.24-1.14,4.29,4.29,0,0,0-2.13-.95,7.25,7.25,0,0,1-3.84-2,3.5,3.5,0,0,1-.56-3.16,5.8,5.8,0,0,1,1.22-2.39,6.31,6.31,0,0,1,2.41-1.77,9.66,9.66,0,0,1,3.8-.64,5.8,5.8,0,0,1,4.07,1.17q1.22,1.17.91,3.72l-4.39.28a2.17,2.17,0,0,0-.35-1.61,1.77,1.77,0,0,0-1.41-.5,2.09,2.09,0,0,0-1.29.37,1.58,1.58,0,0,0-.62.91.77.77,0,0,0,.17.71,2.77,2.77,0,0,0,1.4.6,14.44,14.44,0,0,1,4,1.45A3.36,3.36,0,0,1,460.93,77a4.56,4.56,0,0,1,0,2.43,7,7,0,0,1-1.47,2.9,7.11,7.11,0,0,1-2.68,2,9.32,9.32,0,0,1-3.74.69q-3.79,0-4.87-1.61A5.56,5.56,0,0,1,447.5,79.37Z"/><path d="M467.91,68.41h12.31l-.82,3.5h-7.7l-.61,2.6h7.15l-.78,3.34h-7.15l-.75,3.23h7.93l-.87,3.71H464.09Z"/><path d="M643.48,1a5.25,5.25,0,0,1,2.52.66,4.7,4.7,0,0,1,1.91,1.89,5.14,5.14,0,0,1,0,5.11,4.76,4.76,0,0,1-1.89,1.9,5.14,5.14,0,0,1-5.09,0,4.78,4.78,0,0,1-1.9-1.9,5.12,5.12,0,0,1,0-5.11A4.72,4.72,0,0,1,641,1.68,5.25,5.25,0,0,1,643.48,1Zm0,.85a4.36,4.36,0,0,0-2.1.55A4,4,0,0,0,639.79,4a4.25,4.25,0,0,0,0,4.26,4,4,0,0,0,1.58,1.58,4.26,4.26,0,0,0,4.24,0,4,4,0,0,0,1.58-1.58,4.28,4.28,0,0,0,0-4.26,3.94,3.94,0,0,0-1.6-1.58A4.36,4.36,0,0,0,643.48,1.87ZM641.24,9V3.46h1.89a4.63,4.63,0,0,1,1.4.15,1.36,1.36,0,0,1,.69.53,1.41,1.41,0,0,1,.26.81A1.47,1.47,0,0,1,645.05,6a1.7,1.7,0,0,1-1.14.5,1.51,1.51,0,0,1,.47.29,6.3,6.3,0,0,1,.81,1.09L645.86,9h-1.08l-.49-.87a4.44,4.44,0,0,0-.93-1.28,1.14,1.14,0,0,0-.71-.19h-.52V9Zm.89-3.1h1.08a1.74,1.74,0,0,0,1.05-.23.79.79,0,0,0,.15-1A.81.81,0,0,0,644,4.3a2.79,2.79,0,0,0-.89-.09h-1Z"/></svg>